<?xml version="1.0" encoding="utf-8"?>
<!-- Generator: Adobe Illustrator 23.0.0, SVG Export Plug-In . SVG Version: 6.00 Build 0)  -->
<svg version="1.1" id="Layer_1" xmlns="http://www.w3.org/2000/svg" xmlns:xlink="http://www.w3.org/1999/xlink" x="0px" y="0px"
	 viewBox="0 0 184 54" style="enable-background:new 0 0 184 54;" xml:space="preserve">
<style type="text/css">
	.st0{fill:#2A64DB;}
	.st1{fill:#FFC822;}
</style>
<g>
	<g id="text_2_">
		<path class="st0" d="M33.3,36.7c0,0.7-0.2,1.4-0.7,2c-0.5,0.5-1.2,0.8-1.9,0.9l-11.9,0.5L6.9,40.6c0.8,3.2,3.2,5.8,6.2,6.9
			c2.1,0.9,4.4,1,6.5,0.4c2.1-0.5,4-1.7,5.5-3.4c0.7-0.9,2-1.2,3.1-0.7c0.8,0.3,1.4,1,1.6,1.9c0.2,0.8,0,1.7-0.6,2.4
			c-2.1,2.5-5,4.3-8.3,5c-3.3,0.8-6.7,0.6-9.8-0.7c-4-1.5-7.2-4.7-8.8-8.6c-1.7-3.9-1.8-8.4-0.1-12.3c1.5-4,4.7-7.2,8.6-8.8
			c3.9-1.7,8.4-1.8,12.3-0.1C29.1,24.9,33,30.5,33.3,36.7z M21.2,27.7c-5.4-2.2-11.6,0.4-13.8,5.9l0,0c-0.2,0.5-0.4,1-0.5,1.5
			l20.5-0.9C26.4,31.2,24.2,28.8,21.2,27.7z"/>
		<path class="st0" d="M68.7,36.1c0.1,1.5-1,2.7-2.5,2.8c0,0,0,0-0.1,0l-11.9,0.5l-11.8,0.5c0.8,3.2,3.2,5.8,6.2,6.9
			c4.2,1.7,9.1,0.5,12-2.9c0.7-0.9,2-1.2,3.1-0.7c0.8,0.3,1.4,1,1.6,1.9c0.2,0.8,0,1.7-0.6,2.4c-2.2,2.5-5,4.3-8.3,5
			c-3.3,0.8-6.7,0.6-9.8-0.7c-4-1.5-7.2-4.7-8.8-8.6c-1.7-3.9-1.8-8.4-0.1-12.3c1.5-4,4.7-7.2,8.6-8.8c7-3,15.1-0.6,19.5,5.6
			C67.6,30.1,68.6,33.1,68.7,36.1z M56.6,27c-5.4-2.2-11.6,0.4-13.8,5.8c0,0,0,0,0,0.1c-0.2,0.5-0.4,1-0.5,1.5l20.5-0.9
			C61.8,30.5,59.6,28.1,56.6,27L56.6,27z"/>
		<path class="st0" d="M91.5,26.3c0.2-0.2,0.2-0.4-0.2-0.4H76.2c-1.4,0-2.7-1.3-2.7-2.7c-0.1-1.4,1.2-2.8,2.7-2.8h17.7
			c4-0.3,6.3,5.1,3.3,7.8c-6.7,7-12.5,13.1-17.6,18.4c-0.3,0.4-0.5,0.6,0.2,0.6H96c0.7,0,1.4,0.3,1.9,0.8c1.7,1.6,0.5,4.7-1.9,4.7
			H77c-2,0.1-3.5-0.9-4.3-2.7c-0.8-1.9-0.5-3.6,1-5c3.4-3.5,14.1-14.8,17.6-18.4C91.4,26.5,91.4,26.4,91.5,26.3z"/>
		<path class="st0" d="M134.6,36.1c0,0.7-0.2,1.4-0.7,2c-0.5,0.5-1.2,0.8-1.9,0.9l-11.9,0.5L108.2,40c0.8,3.2,3.2,5.7,6.2,6.9
			c4.2,1.7,9,0.5,12-2.9c0.7-0.9,2-1.2,3.1-0.7c0.8,0.3,1.4,1,1.6,1.9c0.2,0.8,0,1.7-0.6,2.4c-2.1,2.5-5,4.3-8.3,5
			c-3.3,0.8-6.7,0.6-9.8-0.7c-4-1.5-7.2-4.7-8.8-8.6c-1.7-3.9-1.8-8.4-0.1-12.3c1.5-4,4.7-7.2,8.6-8.8c7-3,15.1-0.6,19.5,5.6
			C133.5,30.1,134.5,33.1,134.6,36.1z M122.5,27c-5.4-2.2-11.6,0.4-13.8,5.8c0,0,0,0,0,0.1c-0.2,0.5-0.4,1-0.5,1.5l20.5-0.9
			C127.8,30.5,125.5,28.1,122.5,27L122.5,27z"/>
		<path class="st0" d="M170.4,36.1c0.1,0.7-0.2,1.4-0.7,2c-0.5,0.5-1.2,0.8-1.9,0.9L156,39.5L144.1,40c0.8,3.2,3.2,5.7,6.2,6.9
			c4.2,1.7,9.1,0.5,12-2.9c0.7-0.9,2-1.2,3.1-0.7c0.8,0.3,1.4,1,1.6,1.9c0.2,0.8,0,1.8-0.6,2.4c-2.1,2.5-5,4.3-8.2,5
			c-3.3,0.8-6.7,0.6-9.9-0.7c-4-1.5-7.2-4.7-8.8-8.6c-1.7-3.9-1.8-8.4-0.1-12.3c1.5-4,4.7-7.2,8.6-8.8c7-3,15.1-0.6,19.5,5.6
			C169.3,30.1,170.3,33.1,170.4,36.1z M158.4,27c-5.4-2.2-11.6,0.4-13.8,5.9l0,0c-0.2,0.5-0.3,1-0.5,1.5l20.5-0.9
			C163.5,30.5,161.2,28.1,158.4,27L158.4,27z"/>
	</g>
	<polygon id="stroke_1_" class="st1" points="10.2,9.3 183,0.5 168.1,12.5 3.6,15.2 	"/>
</g>
</svg>
